<svg width="11" height="20" viewBox="0 0 11 20" fill="none" xmlns="http://www.w3.org/2000/svg">
<mask id="mask0_9_18" style="mask-type:alpha" maskUnits="userSpaceOnUse" x="0" y="0" width="10" height="20">
<g clip-path="url(#clip0_9_18)">
<path d="M9.80815 0.601455C9.50407 0.556407 8.45669 0.466309 7.24038 0.466309C4.69513 0.466309 2.94949 2.02049 2.94949 4.86982V7.32498H0.0776367V10.6586H2.94949V19.2066H6.39571V10.6586H9.25631L9.69553 7.32498H6.39571V5.19642C6.39571 4.23914 6.65475 3.57467 8.03999 3.57467H9.80815V0.601455Z" fill="#0DD0BA"/>
</g>
</mask>
<g mask="url(#mask0_9_18)">
</g>
<g clip-path="url(#clip1_9_18)">
<path d="M10.8082 0.601455C10.5041 0.556407 9.45669 0.466309 8.24038 0.466309C5.69513 0.466309 3.94949 2.02049 3.94949 4.86982V7.32498H1.07764V10.6586H3.94949V19.2066H7.39571V10.6586H10.2563L10.6955 7.32498H7.39571V5.19642C7.39571 4.23914 7.65475 3.57467 9.03999 3.57467H10.8082V0.601455Z" fill="#FF5458"/>
</g>
<defs>
<clipPath id="clip0_9_18">
<rect width="10" height="20" fill="white"/>
</clipPath>
<clipPath id="clip1_9_18">
<rect width="10" height="20" fill="white" transform="translate(1)"/>
</clipPath>
</defs>
</svg>
